<svg width="50" height="50" viewBox="0 0 50 50" fill="none" xmlns="http://www.w3.org/2000/svg">
<path d="M47.9163 22.3018H2.08301L24.9997 35.8166L47.9163 22.3018Z" fill="url(#paint0_linear_61_68381)"/>
<path d="M47.9163 22.3022V21.83C47.9163 20.2136 47.188 18.7183 45.9184 17.7285C44.1322 16.3379 29.2904 4.52352 27.7992 3.20312C26.1431 1.73828 23.8563 1.73828 22.2002 3.20312C18.6907 6.30981 8.36149 14.396 4.08089 17.7285C2.81136 18.7183 2.08301 20.2136 2.08301 21.83V22.3022L24.9997 35.817L47.9163 22.3022Z" fill="#1565C0"/>
<path d="M2.08301 22.3018V43.7494C2.08301 45.5714 3.26595 47.1067 4.89787 47.6715L24.9997 35.8166L2.08301 22.3018Z" fill="#29B6F6"/>
<path d="M4.89844 47.6715C5.32467 47.819 5.77455 47.9161 6.25024 47.9161H43.7502C46.0472 47.9161 47.9169 46.0474 47.9169 43.7494V22.3018L4.89844 47.6715Z" fill="#81D4FA"/>
<path opacity="0.2" d="M24.9997 35.8166L2.08301 22.3018V22.8226L24.5581 36.077L24.9997 35.8166Z" fill="white"/>
<path opacity="0.2" d="M4.89844 47.6715C5.09477 47.7394 47.9169 22.8226 47.9169 22.8226V22.3018L4.89844 47.6715Z" fill="white"/>
<path opacity="0.2" d="M45.9184 17.7285C44.1322 16.3379 29.2904 4.52352 27.7992 3.20312C26.1431 1.73828 23.8563 1.73828 22.2002 3.20312C18.6907 6.30981 8.36149 14.396 4.08089 17.7285C2.81136 18.7183 2.08301 20.2136 2.08301 21.83V22.3022L2.08822 22.3052C2.10208 20.7069 2.82357 19.2296 4.08089 18.2493C8.36149 14.9168 18.6907 6.83065 22.2002 3.72396C23.8563 2.25911 26.1431 2.25911 27.7992 3.72396C29.2904 5.04435 44.1322 16.8587 45.9184 18.2493C47.1758 19.2296 47.8973 20.7069 47.9111 22.3052L47.9163 22.3022V21.83C47.9163 20.2136 47.188 18.7183 45.9184 17.7285Z" fill="white"/>
<path d="M45.9184 17.7284C44.1322 16.3378 29.2904 4.5234 27.7992 3.203C26.9713 2.47076 25.9859 2.08319 25.0004 2.08301C24.0144 2.08283 23.0284 2.4704 22.2002 3.203C18.6907 6.30969 8.36149 14.3958 4.08089 17.7284C2.81136 18.7181 2.08301 20.2135 2.08301 21.8299V22.302L2.08822 22.3051H47.9111L47.9163 22.302V21.8299C47.9163 20.2135 47.188 18.7181 45.9184 17.7284Z" fill="url(#paint1_linear_61_68381)"/>
<path d="M38.1099 6.12305L24.9995 19.2334L20.2225 14.4564L16.54 18.1388L24.9995 26.5983L41.7923 9.8055L38.1099 6.12305Z" fill="#F2F2F2"/>
<path opacity="0.2" d="M24.9995 19.7542L38.1099 6.64388L41.5319 10.0659L41.7923 9.8055L38.1099 6.12305L24.9995 19.2334L20.2225 14.4564L16.54 18.1388L16.8005 18.3993L20.2225 14.9772L24.9995 19.7542Z" fill="white"/>
<path opacity="0.1" d="M24.9995 26.0776L16.54 18.139L24.9995 26.5985L41.7923 9.80566L24.9995 26.0776Z" fill="black"/>
<path opacity="0.1" d="M43.7497 47.3952H6.24967C3.95272 47.3952 2.08301 45.5265 2.08301 43.2285V43.7493C2.08301 46.0473 3.95272 47.916 6.24967 47.916H43.7497C46.0466 47.916 47.9163 46.0473 47.9163 43.7493V43.2285C47.9163 45.5265 46.0466 47.3952 43.7497 47.3952Z" fill="black"/>
<path d="M47.9167 21.8302C47.9167 20.2138 47.1883 18.7184 45.9188 17.7286C45.2049 17.173 42.3998 14.9473 39.2016 12.3975L25 26.5991L30.7985 32.3975L47.9167 22.3023V21.8302Z" fill="url(#paint2_linear_61_68381)"/>
<path d="M45.9184 17.7284C45.2046 17.1727 42.3995 14.9471 39.2013 12.3972L41.7925 9.80599L38.11 6.12353L35.107 9.12659C31.5976 6.31694 28.4451 3.77495 27.7992 3.203C26.9714 2.47071 25.9859 2.08314 25.0004 2.08301C24.0145 2.08275 23.0285 2.47033 22.2002 3.203C18.6907 6.30969 8.36149 14.3958 4.08089 17.7284C2.81136 18.7181 2.08301 20.2135 2.08301 21.8299V43.7497C2.08301 46.0476 3.95272 47.9163 6.24967 47.9163H43.7497C46.0466 47.9163 47.9163 46.0476 47.9163 43.7497V21.8299C47.9163 20.2135 47.188 18.7181 45.9184 17.7284Z" fill="url(#paint3_linear_61_68381)"/>
<defs>
<linearGradient id="paint0_linear_61_68381" x1="5.63435" y1="14.6859" x2="43.2816" y2="32.2411" gradientUnits="userSpaceOnUse">
<stop stop-color="white" stop-opacity="0.1"/>
<stop offset="1" stop-color="white" stop-opacity="0"/>
</linearGradient>
<linearGradient id="paint1_linear_61_68381" x1="24.9997" y1="2.08301" x2="24.9997" y2="22.3051" gradientUnits="userSpaceOnUse">
<stop stop-opacity="0"/>
<stop offset="1" stop-opacity="0.1"/>
</linearGradient>
<linearGradient id="paint2_linear_61_68381" x1="32.4614" y1="19.1376" x2="41.7714" y2="28.4476" gradientUnits="userSpaceOnUse">
<stop stop-opacity="0.1"/>
<stop offset="1" stop-opacity="0"/>
</linearGradient>
<linearGradient id="paint3_linear_61_68381" x1="3.15541" y1="18.3639" x2="49.9987" y2="40.2073" gradientUnits="userSpaceOnUse">
<stop stop-color="white" stop-opacity="0.2"/>
<stop offset="1" stop-color="white" stop-opacity="0"/>
</linearGradient>
</defs>
</svg>
