<svg width="50" height="50" viewBox="0 0 50 50" fill="none" xmlns="http://www.w3.org/2000/svg">
<path d="M34.0553 43.9512C32.5276 43.9399 31.0067 43.7481 29.524 43.3799C24.4039 42.1446 19.1315 39.0108 14.6803 34.5557C10.2291 30.1006 7.09142 24.8272 5.85607 19.7119C4.55529 14.3311 5.48302 9.72756 8.46545 6.74514L9.31701 5.89358C10.0896 5.12251 11.1366 4.68945 12.2281 4.68945C13.3197 4.68945 14.3667 5.12251 15.1393 5.89358L20.0328 10.7862C20.8044 11.5585 21.2378 12.6056 21.2378 13.6973C21.2378 14.789 20.8044 15.8361 20.0328 16.6084L17.1422 19.4981C18.5279 21.9297 20.4127 24.3633 22.6403 26.5908C24.8678 28.8184 27.3033 30.7041 29.734 32.0899L32.6236 29.1992C33.0059 28.8169 33.4597 28.5135 33.9592 28.3066C34.4587 28.0996 34.9941 27.9931 35.5348 27.9931C36.0755 27.9931 36.6108 28.0996 37.1103 28.3066C37.6098 28.5135 38.0637 28.8169 38.4459 29.1992L43.3385 34.0918C44.1102 34.8639 44.5437 35.9108 44.5437 37.0025C44.5437 38.0941 44.1102 39.141 43.3385 39.9131L42.486 40.7647C40.3834 42.8711 37.4733 43.9512 34.0553 43.9512ZM12.2281 7.61721C12.0722 7.61644 11.9177 7.64679 11.7737 7.70648C11.6296 7.76618 11.4989 7.85402 11.3893 7.96486L10.5367 8.81643C8.30334 11.0498 7.65099 14.6758 8.69982 19.0205C9.81017 23.6231 12.6686 28.4053 16.7477 32.4834C20.8268 36.5615 25.608 39.417 30.2115 40.5313C34.5572 41.5801 38.1813 40.9278 40.4147 38.6944L41.2662 37.8428C41.4887 37.6201 41.6137 37.3182 41.6137 37.0034C41.6137 36.6887 41.4887 36.3868 41.2662 36.1641L36.3746 31.2715C36.152 31.049 35.8501 30.924 35.5353 30.924C35.2205 30.924 34.9186 31.049 34.6959 31.2715L31.0328 34.9346C30.813 35.1545 30.529 35.2988 30.2217 35.3465C29.9145 35.3943 29.6 35.343 29.3238 35.2002C26.3209 33.6475 23.2936 31.3867 20.569 28.6621C17.8444 25.9375 15.5885 22.9121 14.0319 19.9092C13.8889 19.6331 13.8375 19.3187 13.8851 19.0115C13.9326 18.7043 14.0767 18.4201 14.2965 18.2002L17.9606 14.5371C18.1831 14.3145 18.308 14.0126 18.308 13.6978C18.308 13.383 18.1831 13.0811 17.9606 12.8584L13.068 7.96486C12.958 7.85421 12.8271 7.7665 12.6829 7.70683C12.5388 7.64715 12.3842 7.61669 12.2281 7.61721Z" fill="black"/>
<path d="M35.6201 26.3408C35.2316 26.3408 34.859 26.1865 34.5843 25.9118C34.3096 25.6371 34.1553 25.2645 34.1553 24.876C34.1524 22.3062 33.1304 19.8424 31.3134 18.0252C29.4963 16.208 27.0327 15.1857 24.4629 15.1826C24.0744 15.1826 23.7018 15.0283 23.4271 14.7536C23.1524 14.4789 22.998 14.1063 22.998 13.7178C22.998 13.3293 23.1524 12.9567 23.4271 12.682C23.7018 12.4073 24.0744 12.2529 24.4629 12.2529C31.4229 12.2529 37.085 17.917 37.085 24.876C37.085 25.2645 36.9306 25.6371 36.6559 25.9118C36.3812 26.1865 36.0086 26.3408 35.6201 26.3408Z" fill="black"/>
<path d="M41.8115 26.3408C41.423 26.3408 41.0504 26.1865 40.7757 25.9118C40.501 25.6371 40.3467 25.2645 40.3467 24.876C40.3467 16.1172 33.2178 8.99121 24.4629 8.99121C24.0744 8.99121 23.7018 8.83688 23.4271 8.56217C23.1524 8.28746 22.998 7.91487 22.998 7.52637C22.998 7.13787 23.1524 6.76528 23.4271 6.49057C23.7018 6.21586 24.0744 6.06152 24.4629 6.06152C34.8369 6.06152 43.2764 14.502 43.2764 24.876C43.2764 25.2645 43.122 25.6371 42.8473 25.9118C42.5726 26.1865 42.2 26.3408 41.8115 26.3408Z" fill="black"/>
</svg>
